<?xml version="1.0" encoding="UTF-8"?>
<svg id="Layer_2" data-name="Layer 2" xmlns="http://www.w3.org/2000/svg" viewBox="0 0 116.22 100">
  <defs>
    <style>
      .cls-1 {
        fill: #a91079;
        stroke-width: 0px;
      }
    </style>
  </defs>
  <g id="Layer_1-2" data-name="Layer 1">
    <g id="style_linear" data-name="style=linear">
      <g id="email">
        <g id="vector">
          <path class="cls-1" d="M85.13,100H31.08c-9.47,0-16.99-2.52-22.35-7.5-5.79-5.38-8.73-13.31-8.73-23.58V31.08C0,20.81,2.94,12.88,8.73,7.5,14.09,2.52,21.61,0,31.08,0h54.05c9.47,0,16.99,2.52,22.35,7.5,5.79,5.38,8.73,13.31,8.73,23.58v37.84c0,10.27-2.94,18.2-8.73,23.58-5.36,4.98-12.88,7.5-22.35,7.5ZM31.08,8.11c-7.36,0-13.02,1.8-16.84,5.34-4.07,3.78-6.14,9.72-6.14,17.64v37.84c0,7.92,2.06,13.86,6.14,17.64,3.81,3.54,9.48,5.34,16.84,5.34h54.05c7.36,0,13.02-1.8,16.84-5.34,4.07-3.78,6.14-9.72,6.14-17.64V31.08c0-7.92-2.06-13.86-6.14-17.64-3.81-3.54-9.48-5.34-16.84-5.34H31.08Z"/>
        </g>
        <g id="vector_2" data-name="vector 2">
          <path class="cls-1" d="M58.11,56.61c-3.21,0-6.41-1.03-9.09-3.1l-29.98-23.17c-1.77-1.37-2.1-3.92-.73-5.69,1.37-1.77,3.92-2.1,5.69-.73l29.98,23.17c2.43,1.88,5.83,1.88,8.26,0l29.98-23.17c1.77-1.37,4.32-1.04,5.69.73,1.37,1.77,1.04,4.32-.73,5.69l-29.98,23.17c-2.68,2.07-5.88,3.1-9.09,3.1Z"/>
        </g>
      </g>
    </g>
  </g>
</svg>