<?xml version="1.0" encoding="UTF-8"?>
<svg id="Layer_2" data-name="Layer 2" xmlns="http://www.w3.org/2000/svg" viewBox="0 0 100.62 100">
  <defs>
    <style>
      .cls-1 {
        fill: #a91079;
        stroke-width: 0px;
      }
    </style>
  </defs>
  <g id="Layer_1-2" data-name="Layer 1">
    <path class="cls-1" d="M100.61,49.69c-.12-9.59-2.97-18.94-8.23-26.96-5.26-8.02-12.69-14.37-21.44-18.3C62.2.5,52.52-.86,43.03.53c-9.49,1.39-18.38,5.46-25.63,11.73-7.25,6.27-12.56,14.49-15.3,23.67-2.74,9.19-2.8,18.97-.17,28.19s7.84,17.5,15.02,23.85c7.18,6.36,16.02,10.53,25.49,12.03v-35.66h-12.58v-14.65h12.58v-11.13c-.29-2.59-.01-5.21.82-7.68.83-2.47,2.2-4.72,4-6.61,1.8-1.88,3.99-3.35,6.42-4.29,2.43-.94,5.03-1.34,7.63-1.17,3.77.05,7.54.39,11.26,1.01v12.58h-6.29c-1.08-.14-2.19-.03-3.22.32-1.04.35-1.98.92-2.77,1.68-.78.76-1.39,1.69-1.77,2.71-.38,1.03-.52,2.12-.42,3.21v9.5h13.96l-2.26,14.65h-11.63v35.22c11.88-1.88,22.7-7.96,30.49-17.13,7.79-9.17,12.03-20.83,11.96-32.87Z"/>
  </g>
</svg>