<?xml version="1.0" encoding="UTF-8"?>
<svg id="Layer_2" data-name="Layer 2" xmlns="http://www.w3.org/2000/svg" viewBox="0 0 100 100">
  <defs>
    <style>
      .cls-1 {
        fill: #a91079;
        stroke-width: 0px;
      }
    </style>
  </defs>
  <g id="Layer_1-2" data-name="Layer 1">
    <g>
      <path class="cls-1" d="M69.35,100H30.65c-16.9,0-30.65-13.75-30.65-30.65V30.65C0,13.75,13.75,0,30.65,0h38.71c16.9,0,30.65,13.75,30.65,30.65v38.71c0,16.9-13.75,30.65-30.65,30.65ZM30.65,9.68c-11.56,0-20.97,9.41-20.97,20.97v38.71c0,11.56,9.41,20.97,20.97,20.97h38.71c11.56,0,20.97-9.41,20.97-20.97V30.65c0-11.56-9.41-20.97-20.97-20.97H30.65Z"/>
      <path class="cls-1" d="M50,74.19c-13.34,0-24.19-10.85-24.19-24.19s10.85-24.19,24.19-24.19,24.19,10.85,24.19,24.19c0,6.46-2.52,12.54-7.09,17.11-4.57,4.57-10.65,7.09-17.11,7.09ZM50,35.48c-8,0-14.52,6.51-14.52,14.52s6.51,14.52,14.52,14.52c3.88,0,7.52-1.51,10.26-4.25,2.74-2.74,4.25-6.39,4.25-10.26,0-8-6.51-14.52-14.52-14.52Z"/>
      <path class="cls-1" d="M69.35,24.19h0c0-3.56,2.89-6.45,6.45-6.45h0c3.56,0,6.45,2.89,6.45,6.45h0c0,3.56-2.89,6.45-6.45,6.45h0c-3.56,0-6.45-2.89-6.45-6.45Z"/>
      <path class="cls-1" d="M75.81,30.65c-3.56,0-6.45-2.89-6.45-6.45s2.89-6.45,6.45-6.45,6.45,2.89,6.45,6.45-2.89,6.45-6.45,6.45ZM75.81,24.19s0,0,0,0h0Z"/>
    </g>
  </g>
</svg>