<?xml version="1.0" encoding="UTF-8"?>
<svg id="Layer_2" data-name="Layer 2" xmlns="http://www.w3.org/2000/svg" viewBox="0 0 80 100">
  <defs>
    <style>
      .cls-1 {
        fill: #a91079;
        stroke-width: 0px;
      }
    </style>
  </defs>
  <g id="Layer_1-2" data-name="Layer 1">
    <path class="cls-1" d="M68.34,12.06C60.78,4.28,50.71,0,40,0S19.23,4.28,11.67,12.06C4.15,19.8,0,30.07,0,41c0,20.33,15.66,36.3,32.24,53.21,1.37,1.4,2.78,2.84,4.18,4.28.94.96,2.23,1.51,3.58,1.51s2.65-.55,3.59-1.51c1.39-1.44,2.81-2.88,4.18-4.28,16.58-16.91,32.23-32.88,32.23-53.21,0-10.93-4.14-21.2-11.66-28.94ZM40,55c-8.27,0-15-6.73-15-15s6.73-15,15-15,15,6.73,15,15-6.73,15-15,15Z"/>
  </g>
</svg>