<?xml version="1.0" encoding="UTF-8"?>
<svg id="Layer_2" data-name="Layer 2" xmlns="http://www.w3.org/2000/svg" viewBox="0 0 105.88 100">
  <defs>
    <style>
      .cls-1 {
        fill: #a91079;
        stroke-width: 0px;
      }
    </style>
  </defs>
  <g id="Layer_1-2" data-name="Layer 1">
    <path class="cls-1" d="M73.86,64.15l-2.68,2.66s-6.37,6.33-23.75-10.95c-17.38-17.28-11.01-23.62-11.01-23.62l1.69-1.68c4.16-4.13,4.55-10.77.92-15.61l-7.42-9.91C27.12-.94,18.45-1.73,13.3,3.38L4.07,12.56C1.52,15.1-.19,18.39.02,22.03c.53,9.33,4.75,29.41,28.31,52.83,24.98,24.84,48.42,25.83,58.01,24.93,3.03-.28,5.67-1.83,7.79-3.94l8.36-8.31c5.64-5.61,4.05-15.22-3.17-19.15l-11.24-6.11c-4.74-2.58-10.51-1.82-14.22,1.86Z"/>
  </g>
</svg>