<?xml version="1.0" encoding="UTF-8"?>
<svg id="Layer_2" data-name="Layer 2" xmlns="http://www.w3.org/2000/svg" viewBox="0 0 122.14 100">
  <defs>
    <style>
      .cls-1 {
        fill: #a91079;
        stroke-width: 0px;
      }
    </style>
  </defs>
  <g id="Layer_1-2" data-name="Layer 1">
    <path class="cls-1" d="M119.37,11.54c-1.92.85-3.89,1.57-5.91,2.15,2.39-2.7,4.21-5.87,5.32-9.35.25-.78,0-1.63-.65-2.14-.64-.51-1.53-.57-2.23-.15-4.28,2.54-8.9,4.36-13.74,5.43-4.88-4.77-11.5-7.48-18.35-7.48-14.46,0-26.22,11.76-26.22,26.22,0,1.14.07,2.27.21,3.39-17.94-1.58-34.62-10.39-46.07-24.44-.41-.5-1.04-.77-1.68-.72-.64.05-1.22.41-1.55.97-2.32,3.99-3.55,8.55-3.55,13.18,0,6.32,2.26,12.31,6.24,17-1.21-.42-2.39-.94-3.51-1.57-.6-.34-1.34-.33-1.94.01-.6.34-.97.97-.99,1.66,0,.12,0,.23,0,.35,0,9.43,5.08,17.92,12.84,22.55-.67-.07-1.33-.16-1.99-.29-.68-.13-1.38.11-1.84.63-.46.52-.61,1.25-.4,1.91,2.87,8.97,10.27,15.56,19.21,17.57-7.41,4.64-15.89,7.08-24.8,7.08-1.86,0-3.73-.11-5.55-.33-.91-.11-1.78.43-2.09,1.29-.31.86.02,1.83.79,2.32,11.44,7.33,24.66,11.21,38.24,11.21,26.7,0,43.39-12.59,52.7-23.15,11.61-13.17,18.26-30.6,18.26-47.82,0-.72-.01-1.45-.03-2.17,4.58-3.45,8.52-7.63,11.73-12.43.49-.73.43-1.69-.13-2.36-.56-.67-1.5-.89-2.31-.53Z"/>
  </g>
</svg>